<svg width="32" height="32" viewBox="0 0 32 32" fill="none" xmlns="http://www.w3.org/2000/svg">
<path d="M27.8261 25.0434V11.826H4.17389V25.0434C4.17389 26.5802 5.38411 27.826 6.87699 27.826H25.123C26.6158 27.826 27.8261 26.5802 27.8261 25.0434Z" fill="#A56644"/>
<path d="M2.78259 6.95656C2.78259 5.41977 4.02841 4.17395 5.5652 4.17395H11.8261V11.8261H2.78259V6.95656Z" fill="#EA2B2B"/>
<path d="M2.78259 11.826H11.8261V12.1739C11.8261 14.6712 9.80165 16.6956 7.30433 16.6956C4.80704 16.6956 2.78259 14.6712 2.78259 12.1739V11.826Z" fill="#FF4945"/>
<path d="M11.8261 11.826H20.1739V12.1739C20.1739 14.6712 18.3052 16.6956 16 16.6956C13.6948 16.6956 11.8261 14.6712 11.8261 12.1739V11.826Z" fill="white"/>
<path d="M20.1739 11.826H29.2174V12.1739C29.2174 14.6712 27.1929 16.6956 24.6956 16.6956C22.1983 16.6956 20.1739 14.6712 20.1739 12.1739V11.826Z" fill="#FF4945"/>
<path d="M11.8261 4.17395H20.1739V11.8261H11.8261V4.17395Z" fill="#D0D0D0"/>
<path d="M20.1739 4.17395H26.4348C27.9715 4.17395 29.2174 5.41977 29.2174 6.95656V11.8261H20.1739V4.17395Z" fill="#EA2B2B"/>
<path d="M7.65216 20.8696C7.65216 20.1012 8.27505 19.4783 9.04347 19.4783H12.5217C13.2901 19.4783 13.913 20.1012 13.913 20.8696V27.8261H7.65216V20.8696Z" fill="#B9E8FF"/>
<path d="M16.6957 20.8696C16.6957 20.1012 17.3186 19.4783 18.087 19.4783H23.6522C24.4206 19.4783 25.0435 20.1012 25.0435 20.8696V23.6522C25.0435 24.4206 24.4206 25.0435 23.6522 25.0435H18.087C17.3186 25.0435 16.6957 24.4206 16.6957 23.6522V20.8696Z" fill="#B9E8FF"/>
</svg>
