<svg viewBox="0 0 147 307" fill="none" xmlns="http://www.w3.org/2000/svg"><path fill-rule="evenodd" clip-rule="evenodd" d="M63.1953 265.503C63.1953 262.864 65.3344 260.725 67.9731 260.725H86.433C89.0717 260.725 91.2108 262.864 91.2108 265.503C91.2108 268.141 89.0717 270.281 86.433 270.281H67.9731C65.3344 270.281 63.1953 268.141 63.1953 265.503Z" fill="#FF86D0"/><path fill-rule="evenodd" clip-rule="evenodd" d="M15.8646 177.645C14.2401 175.565 14.6087 172.563 16.6881 170.938L31.2346 159.573C33.314 157.949 36.3166 158.317 37.9411 160.397C39.5657 162.476 39.197 165.479 37.1177 167.103L22.5711 178.468C20.4918 180.093 17.4892 179.724 15.8646 177.645Z" fill="#FF86D0"/><path fill-rule="evenodd" clip-rule="evenodd" d="M70.3086 120.793L88.0597 126.532C90.2138 127.229 91.8133 129.05 92.2264 131.276L94.392 142.943C95.0138 146.292 92.8024 149.512 89.4528 150.134C88.7226 150.269 87.9738 150.272 87.2426 150.141L63.7648 145.948C60.4111 145.349 58.1779 142.145 58.7768 138.791C58.8114 138.598 58.8552 138.406 58.9081 138.216L62.5883 125.04C63.5047 121.759 66.9076 119.842 70.1888 120.758L70.3086 120.793V120.793Z" fill="#1CB0F6"/><path fill-rule="evenodd" clip-rule="evenodd" d="M71.449 147.947C87.6743 147.947 100.828 161.055 100.828 177.224C100.828 178.842 100.696 180.428 100.443 181.974L100.443 181.939C100.443 182.375 100.397 182.811 100.305 183.237L85.6441 251.306C85.0591 254.022 82.6576 255.961 79.8792 255.961H64.5288C61.2719 255.961 58.6317 253.321 58.6317 250.064C58.6317 249.647 58.676 249.23 58.7639 248.822L65.7737 216.278C59.4445 220.901 50.5328 219.791 45.5454 213.632L32.3466 197.333C27.2011 190.979 28.1809 181.657 34.5351 176.511C36.8551 174.632 39.5708 173.57 42.3345 173.288C44.2628 158.98 56.563 147.947 71.449 147.947Z" fill="#FFB7E3"/><path fill-rule="evenodd" clip-rule="evenodd" d="M72.444 178.434L72.5856 178.461L80.6607 180.483C81.3217 180.649 81.7233 181.319 81.5577 181.98C81.404 182.594 80.8153 182.984 80.2028 182.904L80.0613 182.877L78.3438 182.447L78.4776 183.451C78.519 183.776 78.5589 184.098 78.5972 184.417L78.6719 185.052C79.8214 195.053 79.4348 202.406 77.4631 207.163C75.5892 211.684 72.2747 214.829 68.2793 217.392L67.9784 217.584C67.8777 217.647 67.7766 217.71 67.675 217.773L67.3692 217.96V217.96L67.0611 218.145V218.145L66.7507 218.328V218.328L66.438 218.509C66.3858 218.54 66.3334 218.57 66.2809 218.6L65.9652 218.778C65.9124 218.808 65.8595 218.838 65.8065 218.867L65.4877 219.044V219.044L65.167 219.218V219.218L65.1367 219.234L65.7737 216.277C65.9457 216.18 66.1167 216.082 66.2867 215.982L66.5408 215.83C67.0052 215.55 67.4614 215.257 67.9075 214.95L68.1499 214.781C71.1265 212.682 73.6386 209.946 75.1838 206.218C76.9685 201.912 77.3269 194.902 76.2096 185.24L76.1338 184.599C76.1208 184.492 76.1076 184.384 76.0943 184.276L76.012 183.624C75.998 183.514 75.9837 183.405 75.9693 183.294L75.8807 182.631C75.8655 182.519 75.8502 182.408 75.8347 182.296C75.8123 182.133 75.8225 181.974 75.8603 181.825L71.9862 180.854C71.3252 180.689 70.9236 180.019 71.0891 179.358C71.2429 178.744 71.8315 178.354 72.444 178.434ZM42.294 173.558C42.1834 181.486 43.5387 187.59 46.317 191.882C46.6872 192.454 46.5237 193.218 45.9517 193.588C45.3797 193.958 44.6158 193.795 44.2456 193.223C41.1984 188.515 39.7383 182.026 39.8239 173.766C40.6285 173.539 41.4469 173.382 42.2697 173.295C42.2868 173.38 42.2952 173.468 42.294 173.558Z" fill="#FFA1DA"/><path fill-rule="evenodd" clip-rule="evenodd" d="M61.127 144.792L91.9484 150.192L91.0305 155.398L60.3789 150.095L61.127 144.792Z" fill="#FF86D0"/><path fill-rule="evenodd" clip-rule="evenodd" d="M70.7634 146.48L74.9682 147.217L73.5328 153.716L69.3281 152.975L70.7634 146.48Z" fill="#FFB7E3"/><path fill-rule="evenodd" clip-rule="evenodd" d="M85.375 149.04L89.5797 149.781L88.1617 156.184L83.957 155.442L85.375 149.04Z" fill="#FFB7E3"/><path fill-rule="evenodd" clip-rule="evenodd" d="M92.946 118.712L125.608 129.958C130.117 131.511 132.514 136.425 130.962 140.935C129.409 145.445 124.494 147.842 119.985 146.289L87.3228 135.043C82.8132 133.49 80.4161 128.575 81.9689 124.065C83.5217 119.556 88.4363 117.159 92.946 118.712Z" fill="#1CB0F6"/><path fill-rule="evenodd" clip-rule="evenodd" d="M85.3606 116.386H95.2303C97.9557 116.386 100.165 118.596 100.165 121.321V132.424C100.165 135.15 97.9557 137.359 95.2303 137.359H85.3606C82.6352 137.359 80.4258 135.15 80.4258 132.424V121.321C80.4258 118.596 82.6352 116.386 85.3606 116.386Z" fill="#FFB7E3"/><path fill-rule="evenodd" clip-rule="evenodd" d="M100.982 121.143L95.3771 120.751C93.4729 120.618 91.8213 122.054 91.6881 123.958C91.6757 124.135 91.677 124.312 91.6919 124.489L93.3318 143.965C93.4748 145.664 94.8345 147.004 96.5348 147.123L105.127 147.724C107.031 147.857 108.682 146.422 108.816 144.517C108.84 144.171 108.812 143.823 108.732 143.485L104.105 123.8C103.759 122.326 102.493 121.249 100.982 121.143Z" fill="#FFB7E3"/><path fill-rule="evenodd" clip-rule="evenodd" d="M67.9518 34.9614C92.9915 34.9614 113.29 55.2602 113.29 80.2999V85.1794C113.29 110.219 92.9915 130.518 67.9518 130.518C42.912 130.518 22.6133 110.219 22.6133 85.1794V80.2999C22.6133 55.2602 42.912 34.9614 67.9518 34.9614Z" fill="#FFB7E3"/><path fill-rule="evenodd" clip-rule="evenodd" d="M100.598 92.4144C101.661 92.9251 102.108 94.2006 101.598 95.2632C92.4407 114.318 75.0844 126.055 47.6318 125.719C45.1623 124.48 42.8223 123.021 40.6367 121.369C40.9513 121.226 41.3046 121.158 41.6728 121.186C70.9715 123.363 88.6512 112.347 97.7494 93.4139C98.2601 92.3513 99.5355 91.9038 100.598 92.4144Z" fill="#FF9BD8"/><path fill-rule="evenodd" clip-rule="evenodd" d="M57.9937 46.8043C77.1524 41.3106 97.137 52.3883 102.631 71.5469C108.124 90.7056 97.0467 110.69 77.888 116.184C58.7293 121.678 38.7447 110.6 33.251 91.4412C27.7574 72.2826 38.8351 52.2979 57.9937 46.8043Z" fill="#E18E70"/><path fill-rule="evenodd" clip-rule="evenodd" d="M77.1846 46.6048L77.1131 46.7391C71.5057 57.2035 61.3403 73.0299 37.5284 79.4315C35.8163 79.8918 33.5679 79.9587 31.8828 79.8025C32.5857 64.7677 42.7224 51.183 57.9928 46.8043C64.4945 44.9399 71.0913 44.984 77.1846 46.6048Z" fill="#3D3D3D"/><path fill-rule="evenodd" clip-rule="evenodd" d="M58.6607 87.4396C64.6586 85.7197 68.1265 79.4633 66.4067 73.4655C64.6869 67.4677 58.4304 63.9997 52.4326 65.7196C46.4348 67.4394 42.9668 73.6958 44.6867 79.6936C46.4065 85.6915 52.6629 89.1594 58.6607 87.4396Z" fill="white"/><path fill-rule="evenodd" clip-rule="evenodd" d="M78.9381 81.6246C84.9359 79.9047 88.4039 73.6483 86.684 67.6505C84.9642 61.6527 78.7078 58.1847 72.71 59.9046C66.7121 61.6244 63.2442 67.8808 64.964 73.8786C66.6839 79.8765 72.9403 83.3444 78.9381 81.6246Z" fill="white"/><path fill-rule="evenodd" clip-rule="evenodd" d="M78.4326 79.8633C83.4578 78.4223 86.3634 73.1804 84.9225 68.1552C83.4815 63.13 78.2397 60.2244 73.2144 61.6654C68.1892 63.1063 65.2836 68.3482 66.7246 73.3734C68.1655 78.3986 73.4074 81.3042 78.4326 79.8633Z" fill="#3D3D3D"/><path fill-rule="evenodd" clip-rule="evenodd" d="M75.5015 70.9931L76.1585 70.5178C78.7819 68.641 80.8855 67.2988 79.2492 65.0467C77.5221 62.6695 73.8363 62.4031 71.0168 64.4516C68.1972 66.5001 67.3116 70.0878 69.0388 72.465C70.7216 74.7813 72.7885 72.9819 75.5015 70.9931V70.9931Z" fill="white"/><path fill-rule="evenodd" clip-rule="evenodd" d="M81.0464 75.3032C82.3432 74.9313 83.093 73.5786 82.7212 72.2818C82.3493 70.985 80.9966 70.2351 79.6997 70.607C78.4029 70.9788 77.6531 72.3316 78.0249 73.6284C78.3968 74.9252 79.7495 75.6751 81.0464 75.3032Z" fill="white"/><path fill-rule="evenodd" clip-rule="evenodd" d="M58.1553 85.6784C63.1805 84.2375 66.0861 78.9956 64.6451 73.9704C63.2042 68.9452 57.9623 66.0396 52.9371 67.4806C47.9119 68.9215 45.0063 74.1634 46.4472 79.1886C47.8882 84.2138 53.1301 87.1194 58.1553 85.6784Z" fill="#3D3D3D"/><path fill-rule="evenodd" clip-rule="evenodd" d="M55.0074 76.9647L55.8773 76.3328C58.5006 74.456 60.6042 73.1138 58.968 70.8617C57.2409 68.4845 53.555 68.2181 50.7355 70.2666C47.916 72.3151 47.0304 75.9028 48.7575 78.28C50.3961 80.5353 52.3987 78.8887 55.0074 76.9647V76.9647Z" fill="white"/><path fill-rule="evenodd" clip-rule="evenodd" d="M60.7651 81.1181C62.0619 80.7463 62.8118 79.3935 62.4399 78.0967C62.0681 76.7999 60.7153 76.0501 59.4185 76.4219C58.1217 76.7938 57.3718 78.1465 57.7437 79.4433C58.1156 80.7402 59.4683 81.49 60.7651 81.1181Z" fill="white"/><path d="M88.5971 69.3562C81.0192 71.8833 75.545 77.045 72.37 84.6224C71.5602 86.5548 72.4704 88.7777 74.4028 89.5874C76.3351 90.3971 78.5581 89.487 79.3678 87.5546C81.7056 81.9753 85.517 78.3814 90.9974 76.5538C92.9849 75.891 94.0589 73.7425 93.3961 71.7549C92.7333 69.7673 90.5847 68.6934 88.5971 69.3562Z" fill="#E18E70"/><path fill-rule="evenodd" clip-rule="evenodd" d="M69.4894 86.6887C71.1596 86.2098 72.122 84.4563 71.6391 82.7722C71.1562 81.0881 66.99 77.9722 66.99 77.9722L66.8289 78.4051C66.3838 79.6313 65.1959 83.1286 65.591 84.5065C66.0739 86.1906 67.8193 87.1676 69.4894 86.6887Z" fill="#9E4D31"/><path fill-rule="evenodd" clip-rule="evenodd" d="M65.9328 89.5044C67.3175 90.0885 68.778 90.1603 70.3143 89.7197C71.8787 89.2711 73.1096 88.4095 74.007 87.1347C74.3601 86.6333 75.0527 86.513 75.5541 86.8659C75.7613 87.0118 75.9124 87.2242 75.9822 87.4678L78.6745 96.8568C79.5901 100.05 77.7439 103.38 74.5509 104.296C71.358 105.212 68.0274 103.365 67.1118 100.172L64.434 90.8335C64.2649 90.244 64.6057 89.6291 65.1952 89.4601C65.4389 89.3902 65.6992 89.4058 65.9328 89.5044Z" fill="#881B1B"/><path fill-rule="evenodd" clip-rule="evenodd" d="M72.6148 97.5363C74.9692 96.8612 77.4009 97.7355 78.8203 99.5551C78.4335 101.749 76.8382 103.641 74.5531 104.296C72.2679 104.951 69.9123 104.192 68.4219 102.537C68.6615 100.241 70.2604 98.2115 72.6148 97.5363Z" fill="#B12E2E"/><path fill-rule="evenodd" clip-rule="evenodd" d="M25.8555 67.3903L26.353 67.3998C34.2311 67.6186 36.7267 62.8424 39.583 59.2949C41.4872 56.9299 44.599 58.0328 48.9183 62.6034L41.3107 71.2487L28.402 71.5417L27.4686 71.1238C21.9289 68.5928 21.3912 67.3483 25.8555 67.3903V67.3903Z" fill="#3D3D3D"/><path d="M20.538 66.4716L43.2571 70.2554C44.4608 70.4692 45.1086 71.7961 44.5362 72.876C41.7865 78.0646 35.9252 80.944 29.9917 79.8904C24.0583 78.8368 19.5284 74.1123 18.7066 68.2895C18.5356 67.0776 19.3342 66.2579 20.538 66.4716Z" fill="#3D3D3D"/><path fill-rule="evenodd" clip-rule="evenodd" d="M71.2389 120.578L97.382 134.479C101.593 136.718 103.192 141.947 100.953 146.158C98.7136 150.37 93.4846 151.968 89.2734 149.729L63.1302 135.829C58.919 133.59 57.3203 128.36 59.5594 124.149C61.7986 119.938 67.0276 118.339 71.2389 120.578Z" fill="#1CB0F6"/><path fill-rule="evenodd" clip-rule="evenodd" d="M86.4202 138.153L98.7572 116.785C101.142 112.654 106.424 111.239 110.554 113.624C114.685 116.008 116.1 121.29 113.715 125.42L101.378 146.789C98.9933 150.919 93.7116 152.335 89.5811 149.95C85.4506 147.565 84.0354 142.283 86.4202 138.153Z" fill="#1CB0F6"/><path fill-rule="evenodd" clip-rule="evenodd" d="M114.92 141.02L106.887 117.69C105.334 113.18 107.731 108.266 112.241 106.713C116.75 105.16 121.665 107.557 123.218 112.067L131.251 135.397C132.804 139.906 130.407 144.821 125.897 146.374C121.387 147.927 116.473 145.53 114.92 141.02Z" fill="#1CB0F6"/><path fill-rule="evenodd" clip-rule="evenodd" d="M110.649 89.2446C117.803 89.2446 123.603 95.0442 123.603 102.198C123.603 109.353 117.803 115.152 110.649 115.152C103.495 115.152 97.6953 109.353 97.6953 102.198C97.6953 95.0442 103.495 89.2446 110.649 89.2446Z" fill="#E18E70"/><path fill-rule="evenodd" clip-rule="evenodd" d="M118.052 92.9456C125.206 92.9456 131.005 98.7453 131.005 105.9C131.005 113.054 125.206 118.853 118.052 118.853C110.897 118.853 105.098 113.054 105.098 105.9C105.098 98.7453 110.897 92.9456 118.052 92.9456Z" fill="#E18E70"/><rect opacity="0.3" x="44.5898" y="270.037" width="62.4698" height="8.18294" rx="4.09147" fill="#AFAFAF"/></svg>