<svg width="144" height="160" viewBox="0 0 144 160" fill="none" xmlns="http://www.w3.org/2000/svg">
<path opacity="0.807143" fill-rule="evenodd" clip-rule="evenodd" d="M71.5014 38.4297C73.5828 38.4297 75.2701 40.117 75.2701 42.1984C75.2701 42.2975 75.2662 42.3965 75.2584 42.4952L73.5011 64.7428C73.4186 65.7861 72.5479 66.5907 71.5014 66.5907C70.4548 66.5907 69.5841 65.7861 69.5017 64.7428L67.7443 42.4952C67.5804 40.4202 69.1296 38.6053 71.2046 38.4414C71.3033 38.4336 71.4023 38.4297 71.5014 38.4297Z" fill="#743D00"/>
<path fill-rule="evenodd" clip-rule="evenodd" d="M36.5868 59.0688L36.6651 59.0218C51.2135 50.3025 70.0796 55.0063 78.8316 69.5351L88.036 84.8453C96.791 99.3791 92.0897 118.254 77.5483 126.996C77.544 126.999 77.5397 127.002 77.5278 126.991L77.4495 127.038C62.9011 135.758 44.0349 131.054 35.2829 116.525L26.0786 101.215C17.3236 86.6811 22.0248 67.806 36.5663 59.0637C36.5706 59.0612 36.5748 59.0586 36.5868 59.0688Z" fill="#FF4B4B"/>
<path fill-rule="evenodd" clip-rule="evenodd" d="M106.446 59.0688L106.368 59.0218C91.8197 50.3025 72.9536 55.0063 64.2016 69.5351L54.9972 84.8453C46.2422 99.3791 50.9435 118.254 65.4849 126.996C65.4892 126.999 65.4935 127.002 65.5054 126.991L65.5837 127.038C80.1321 135.758 98.9983 131.054 107.75 116.525L116.955 101.215C125.71 86.6811 121.008 67.806 106.467 59.0637C106.463 59.0612 106.458 59.0586 106.446 59.0688Z" fill="#FF4B4B"/>
<path d="M48.886 91.7871C55.0287 91.7871 60.0083 86.8102 60.0083 80.6709C60.0083 74.5316 55.0287 69.5547 48.886 69.5547C42.7433 69.5547 37.7637 74.5316 37.7637 80.6709C37.7637 86.8102 42.7433 91.7871 48.886 91.7871Z" fill="#FF7878"/>
<path fill-rule="evenodd" clip-rule="evenodd" d="M106.746 26.008C105.426 24.594 92.4095 25.8191 85.8199 32.1218C79.2303 38.4244 76.8786 51.5186 78.0391 52.7624C79.1996 54.0063 92.3919 52.7624 99.1836 46.4447C105.975 40.1269 108.065 27.4219 106.746 26.008Z" fill="#5ABB1A"/>
<path d="M99.6776 104.387C103.158 104.387 105.98 101.567 105.98 98.0882C105.98 94.6093 103.158 91.7891 99.6776 91.7891C96.1968 91.7891 93.375 94.6093 93.375 98.0882C93.375 101.567 96.1968 104.387 99.6776 104.387Z" fill="#EA2B2B"/>
<path d="M90.4079 114.768C92.865 114.768 94.8568 112.777 94.8568 110.321C94.8568 107.866 92.865 105.875 90.4079 105.875C87.9508 105.875 85.959 107.866 85.959 110.321C85.959 112.777 87.9508 114.768 90.4079 114.768Z" fill="#EA2B2B"/>
</svg>
