<svg width="143" height="160" viewBox="0 0 143 160" fill="none" xmlns="http://www.w3.org/2000/svg">
<path fill-rule="evenodd" clip-rule="evenodd" d="M71.5657 28.2578C80.0884 28.2578 86.9944 35.1845 86.9944 43.7223V46.0424H56.1328V43.7223C56.1328 35.1845 63.0429 28.2578 71.5657 28.2578Z" fill="#FF9600"/>
<path d="M55.0884 43.4308C64.1862 43.4308 71.5632 36.1705 71.5632 27.2154C71.5632 18.2603 64.1862 11 55.0884 11C45.9864 11 38.6094 18.2603 38.6094 27.2154C38.6094 36.1705 45.9864 43.4308 55.0884 43.4308Z" fill="#FF9600"/>
<path d="M43.0566 43.1719H101.641C112.619 43.1719 121.518 52.0711 121.518 63.0488V119.892H23.1797V63.0488C23.1797 52.0711 32.0789 43.1719 43.0566 43.1719Z" fill="#FFC6B7"/>
<mask id="mask0_35_1440" style="mask-type:luminance" maskUnits="userSpaceOnUse" x="23" y="43" width="99" height="77">
<g opacity="0.33152">
<path d="M43.0566 43.1719H101.641C112.619 43.1719 121.518 52.0711 121.518 63.0488V119.892H23.1797V63.0488C23.1797 52.0711 32.0789 43.1719 43.0566 43.1719Z" fill="#FF9600"/>
</g>
</mask>
<g mask="url(#mask0_35_1440)">
<path opacity="0.33152" d="M25.0098 16.7578H-28.344C-34.844 16.7578 -40.1133 22.0271 -40.1133 28.527V66.1886C-40.1133 72.6886 -34.844 77.9578 -28.344 77.9578H25.0098C31.5098 77.9578 36.7791 72.6886 36.7791 66.1886V28.527C36.7791 22.0271 31.5098 16.7578 25.0098 16.7578Z" fill="#FF9600"/>
</g>
<mask id="mask1_35_1440" style="mask-type:luminance" maskUnits="userSpaceOnUse" x="23" y="43" width="99" height="77">
<g opacity="0.33152">
<path d="M43.0566 43.1719H101.641C112.619 43.1719 121.518 52.0711 121.518 63.0488V119.892H23.1797V63.0488C23.1797 52.0711 32.0789 43.1719 43.0566 43.1719Z" fill="#FF9600"/>
</g>
</mask>
<g mask="url(#mask1_35_1440)">
<path opacity="0.33152" d="M175.395 16.7578H122.041C115.541 16.7578 110.271 22.0271 110.271 28.527V66.1886C110.271 72.6886 115.541 77.9578 122.041 77.9578H175.395C181.895 77.9578 187.164 72.6886 187.164 66.1886V28.527C187.164 22.0271 181.895 16.7578 175.395 16.7578Z" fill="#FF9600"/>
</g>
<path d="M124.002 90.5075C128.841 90.5075 132.763 86.5848 132.763 81.7459C132.763 76.9071 128.841 72.9844 124.002 72.9844C119.163 72.9844 115.24 76.9071 115.24 81.7459C115.24 86.5848 119.163 90.5075 124.002 90.5075Z" fill="#FFC6B7"/>
<path d="M20.1717 90.5075C25.0106 90.5075 28.9332 86.5848 28.9332 81.7459C28.9332 76.9071 25.0106 72.9844 20.1717 72.9844C15.3328 72.9844 11.4102 76.9071 11.4102 81.7459C11.4102 86.5848 15.3328 90.5075 20.1717 90.5075Z" fill="#FFC6B7"/>
<path fill-rule="evenodd" clip-rule="evenodd" d="M57.7417 53.1094C64.5522 53.1094 70.0732 58.6304 70.0732 65.4409V72.9418C70.0732 79.7524 64.5522 85.2734 57.7417 85.2734C50.9312 85.2734 45.4102 79.7524 45.4102 72.9418V65.4409C45.4102 58.6304 50.9312 53.1094 57.7417 53.1094Z" fill="white"/>
<path fill-rule="evenodd" clip-rule="evenodd" d="M61.1456 60.4297C64.2031 60.4297 66.6818 62.9083 66.6818 65.9659V72.9195C66.6818 75.977 64.2031 78.4557 61.1456 78.4557C58.088 78.4557 55.6094 75.977 55.6094 72.9195V65.9659C55.6094 62.9083 58.088 60.4297 61.1456 60.4297Z" fill="#3D3D3D"/>
<path fill-rule="evenodd" clip-rule="evenodd" d="M86.772 53.1094C79.9615 53.1094 74.4405 58.6304 74.4405 65.4409V72.9418C74.4405 79.7524 79.9615 85.2734 86.772 85.2734C93.5825 85.2734 99.1035 79.7524 99.1035 72.9418V65.4409C99.1035 58.6304 93.5825 53.1094 86.772 53.1094Z" fill="white"/>
<path d="M84.1513 60.4297C81.0937 60.4297 78.6151 62.9083 78.6151 65.9659V72.9195C78.6151 75.977 81.0937 78.4557 84.1513 78.4557C87.2089 78.4557 89.6875 75.977 89.6875 72.9195V65.9659C89.6875 62.9083 87.2089 60.4297 84.1513 60.4297Z" fill="#3D3D3D"/>
<path d="M38.3477 81.6183C51.399 81.55 62.7323 84.6881 72.3477 91.0326" stroke="#FFC6B7" stroke-width="5.49231"/>
<path d="M73.1932 96.3984C68.3803 97.8374 64.6689 96.4068 62.059 92.1065" stroke="#EE9583" stroke-width="2.61539" stroke-linecap="round" stroke-linejoin="round"/>
<path d="M55.8722 66.447C53.4167 66.447 51.426 64.4564 51.426 62.0008C51.426 59.5453 53.4167 57.5547 55.8722 57.5547C58.3277 57.5547 60.3184 59.5453 60.3184 62.0008C60.3184 64.4564 58.3277 66.447 55.8722 66.447Z" fill="white"/>
<path fill-rule="evenodd" clip-rule="evenodd" d="M71.9557 90.51C74.6279 90.51 76.7941 88.3389 76.7941 85.6607C76.7941 82.9825 71.9557 76.6484 71.9557 76.6484C71.9557 76.6484 67.1172 82.9825 67.1172 85.6607C67.1172 88.3389 69.2834 90.51 71.9557 90.51Z" fill="#EE9583"/>
<path d="M117.592 117.328H27.4129C25.1828 117.328 23.375 119.136 23.375 121.366V144.247C23.375 146.477 25.1828 148.285 27.4129 148.285H117.592C119.822 148.285 121.63 146.477 121.63 144.247V121.366C121.63 119.136 119.822 117.328 117.592 117.328Z" fill="#2FE3FF"/>
<path fill-rule="evenodd" clip-rule="evenodd" d="M21.3486 114.57H122.826C128.314 114.57 132.764 119.02 132.764 124.509V125.293C132.764 130.782 128.314 135.232 122.826 135.232H21.3486C15.8598 135.232 11.4102 130.782 11.4102 125.293V124.509C11.4102 119.02 15.8598 114.57 21.3486 114.57Z" fill="#2FE3FF"/>
<path d="M66.5939 125.16C66.5939 123.644 65.3644 122.414 63.8477 122.414C62.3311 122.414 61.1016 123.644 61.1016 125.16V141.114C61.1016 142.631 62.3311 143.86 63.8477 143.86C65.3644 143.86 66.5939 142.631 66.5939 141.114V125.16Z" fill="white"/>
<path d="M83.3341 125.16C83.3341 123.644 82.1046 122.414 80.5879 122.414C79.0713 122.414 77.8418 123.644 77.8418 125.16V141.114C77.8418 142.631 79.0713 143.86 80.5879 143.86C82.1046 143.86 83.3341 142.631 83.3341 141.114V125.16Z" fill="white"/>
<path fill-rule="evenodd" clip-rule="evenodd" d="M75.7436 65.1447C76.5482 65.9493 77.6598 66.447 78.8876 66.447C81.3431 66.447 83.3338 64.4564 83.3338 62.0008C83.3338 59.5453 81.3431 57.5547 78.8876 57.5547C76.2552 62.0783 75.2072 64.6083 75.7436 65.1447Z" fill="white"/>
</svg>
