<svg width="143" height="160" viewBox="0 0 143 160" fill="none" xmlns="http://www.w3.org/2000/svg">
<g clip-path="url(#clip0_35_1317)">
<path fill-rule="evenodd" clip-rule="evenodd" d="M90.6359 18.0817L133.885 61.2423C144.361 71.6975 144.379 88.6661 133.924 99.1427C133.911 99.1557 133.898 99.1686 133.885 99.1815L90.6359 142.342C80.1745 152.782 63.2357 152.782 52.7742 142.342L9.52531 99.1815C-0.951299 88.7262 -0.968628 71.7576 9.4866 61.281C9.49949 61.2681 9.5124 61.2552 9.52532 61.2423L52.7742 18.0817C63.2357 7.64152 80.1745 7.64152 90.6359 18.0817Z" fill="#363636"/>
<path fill-rule="evenodd" clip-rule="evenodd" d="M128.998 49.7216L128.998 110.705C128.998 125.506 116.999 137.505 102.198 137.505H40.9804C26.1793 137.505 14.1807 125.506 14.1807 110.705L14.1807 49.7216C14.1807 34.9205 26.1793 22.9219 40.9804 22.9219L102.198 22.9219C116.999 22.9219 128.998 34.9205 128.998 49.7216Z" fill="#363636"/>
<path fill-rule="evenodd" clip-rule="evenodd" d="M53.6223 53.1797H89.7943C100.608 53.1797 109.374 61.9457 109.374 72.759V109.148C109.374 119.961 100.608 128.727 89.7943 128.727H53.6223C42.8089 128.727 34.043 119.961 34.043 109.148V72.759C34.043 61.9457 42.8089 53.1797 53.6223 53.1797Z" fill="#A56644"/>
<path fill-rule="evenodd" clip-rule="evenodd" d="M71.4392 103.052C73.7302 103.052 75.5874 101.233 75.5874 98.9891C75.5874 96.745 71.4392 91.4375 71.4392 91.4375C71.4392 91.4375 67.291 96.745 67.291 98.9891C67.291 101.233 69.1482 103.052 71.4392 103.052Z" fill="#80411F"/>
<path d="M112.692 95.1495C116.174 95.1495 118.997 92.3265 118.997 88.8443C118.997 85.362 116.174 82.5391 112.692 82.5391C109.21 82.5391 106.387 85.362 106.387 88.8443C106.387 92.3265 109.21 95.1495 112.692 95.1495Z" fill="#A56644"/>
<path d="M30.3931 96.1417C33.8754 96.1417 36.6983 93.3187 36.6983 89.8365C36.6983 86.3542 33.8754 83.5312 30.3931 83.5312C26.9108 83.5312 24.0879 86.3542 24.0879 89.8365C24.0879 93.3187 26.9108 96.1417 30.3931 96.1417Z" fill="#A56644"/>
<path d="M78.3642 108.292C78.8099 107.88 78.8551 107.165 78.4653 106.694C78.0756 106.224 77.3983 106.176 76.9527 106.588C75.4909 107.938 73.649 108.689 71.7001 108.689C69.7229 108.689 67.856 107.916 66.3852 106.53C65.9435 106.113 65.2659 106.154 64.8716 106.62C64.4774 107.087 64.5159 107.802 64.9576 108.219C66.8161 109.97 69.189 110.953 71.7001 110.953C74.1752 110.953 76.5167 109.998 78.3642 108.292Z" fill="#914D28"/>
<path fill-rule="evenodd" clip-rule="evenodd" d="M111.515 50.6702L97.3537 45.9499C95.2105 45.2355 94.0522 42.9189 94.7666 40.7757C94.9675 40.1733 95.3058 39.6259 95.7548 39.1768L105.195 29.7362C106.793 28.1387 109.383 28.1387 110.98 29.7362C111.429 30.1852 111.768 30.7326 111.968 31.3351L116.689 45.4961C117.403 47.6393 116.245 49.9558 114.102 50.6702C113.262 50.9501 112.354 50.9501 111.515 50.6702Z" fill="#FFB100"/>
<path fill-rule="evenodd" clip-rule="evenodd" d="M111.162 50.1869C110.9 49.3647 110.914 48.4711 111.203 47.6402C111.939 45.5194 114.238 44.343 116.336 45.0127L130.202 49.438C130.792 49.6263 131.326 49.9508 131.761 50.3858C133.308 51.9333 133.268 54.4828 131.67 56.0802L122.23 65.5209C121.781 65.9699 121.237 66.3115 120.64 66.5186C118.52 67.2554 116.257 66.1514 115.588 64.0528L111.162 50.1869Z" fill="#FFB100"/>
<path fill-rule="evenodd" clip-rule="evenodd" d="M57.1973 128.453H86.2668V148.909C86.2668 150.247 85.1823 151.332 83.8444 151.332H59.6197C58.2818 151.332 57.1973 150.247 57.1973 148.909V128.453Z" fill="#FFAE00"/>
<path fill-rule="evenodd" clip-rule="evenodd" d="M83.1722 128.453V129.597C83.1722 133.053 80.3704 135.855 76.9141 135.855C74.8424 135.855 73.0058 134.848 71.8668 133.297C70.7289 134.848 68.8923 135.855 66.8205 135.855C63.3643 135.855 60.5625 133.053 60.5625 129.597V128.453H83.1722Z" fill="white"/>
<path d="M71.8667 147.292C73.6505 147.292 75.0966 145.785 75.0966 143.927C75.0966 142.069 73.6505 140.562 71.8667 140.562C70.0828 140.562 68.6367 142.069 68.6367 143.927C68.6367 145.785 70.0828 147.292 71.8667 147.292Z" fill="white"/>
<path d="M101.398 83.03C101.398 75.0398 94.9206 68.5625 86.9304 68.5625C78.9402 68.5625 72.4629 75.0398 72.4629 83.03C72.4629 91.0202 78.9402 97.4975 86.9304 97.4975C94.9206 97.4975 101.398 91.0202 101.398 83.03Z" fill="white"/>
<path d="M70.1928 83.03C70.1928 75.0398 63.7155 68.5625 55.7253 68.5625C47.7351 68.5625 41.2578 75.0398 41.2578 83.03C41.2578 91.0202 47.7351 97.4975 55.7253 97.4975C63.7155 97.4975 70.1928 91.0202 70.1928 83.03Z" fill="white"/>
<path fill-rule="evenodd" clip-rule="evenodd" d="M83.1706 74.6172C87.1092 74.6172 90.302 77.8101 90.302 81.7487V85.6542C90.302 89.5928 87.1092 92.7857 83.1706 92.7857C79.2319 92.7857 76.0391 89.5928 76.0391 85.6542V81.7487C76.0391 81.3592 76.0703 80.9769 76.1304 80.6044C76.3711 80.6501 76.6195 80.6733 76.8734 80.6733C79.1215 80.6733 80.9439 78.851 80.9439 76.603C80.9439 76.0632 80.8388 75.5479 80.648 75.0764C81.432 74.7796 82.2823 74.6172 83.1706 74.6172Z" fill="#363636"/>
<path fill-rule="evenodd" clip-rule="evenodd" d="M59.6178 73.9453C63.5564 73.9453 66.7493 77.1382 66.7493 81.0768V85.6552C66.7493 89.5938 63.5564 92.7867 59.6178 92.7867C55.6792 92.7867 52.4863 89.5938 52.4863 85.6552V81.0768C52.4863 80.9136 52.4918 80.7516 52.5026 80.5911C52.7669 80.6461 53.0405 80.6744 53.3207 80.6744C55.5688 80.6744 57.3912 78.852 57.3912 76.604C57.3912 75.8413 57.1814 75.1276 56.8164 74.5174C57.676 74.149 58.6231 73.9453 59.6178 73.9453Z" fill="#363636"/>
<path fill-rule="evenodd" clip-rule="evenodd" d="M105.987 97.4598L90.8086 112.638L75.63 97.4598C84.0129 89.0769 97.6043 89.0769 105.987 97.4598Z" fill="#A56644"/>
<path fill-rule="evenodd" clip-rule="evenodd" d="M36.6027 97.4598L51.7812 112.638L66.9598 97.4598C58.5769 89.0769 44.9856 89.0769 36.6027 97.4598Z" fill="#A56644"/>
<path fill-rule="evenodd" clip-rule="evenodd" d="M42.0568 35.5859C51.7703 35.5859 59.6448 43.4604 59.6448 53.1739V61.7369C59.6448 71.4505 51.7703 79.3249 42.0568 79.3249C32.3432 79.3249 24.4688 71.4505 24.4688 61.7369V53.1739C24.4688 43.4604 32.3432 35.5859 42.0568 35.5859Z" fill="#363636"/>
</g>
<defs>
<clipPath id="clip0_35_1317">
<rect width="142.656" height="142.656" fill="white" transform="translate(0 8.67188)"/>
</clipPath>
</defs>
</svg>
